<?xml version="1.0" encoding="iso-8859-1"?>
<!-- Generator: Adobe Illustrator 19.0.0, SVG Export Plug-In . SVG Version: 6.00 Build 0)  -->
<svg version="1.1" id="Capa_1" xmlns="http://www.w3.org/2000/svg" xmlns:xlink="http://www.w3.org/1999/xlink" x="0px" y="0px"
	 viewBox="0 0 512 512" style="enable-background:new 0 0 512 512;fill: #970d3b;" xml:space="preserve">
<g>
	<g>
		<g>
			<path d="M412,40h80c11.046,0,20-8.954,20-20s-8.954-20-20-20h-80c-11.046,0-20,8.954-20,20S400.954,40,412,40z"/>
			<path d="M492,251H20c-11.046,0-20,8.954-20,20v161c0,44.112,35.888,80,80,80h352c44.112,0,80-35.888,80-80
				c0-11.046-8.954-20-20-20c-11.046,0-20,8.954-20,20c0,22.056-17.944,40-40,40H80c-22.056,0-40-17.944-40-40V291h123.378
				c-5.465,13.49-8.378,28.138-8.378,43c0,59.551,45.309,108,101,108s101-48.449,101-108c0-14.887-2.909-29.521-8.373-43H472v41
				c0,11.046,8.954,20,20,20c11.046,0,20-8.954,20-20v-61C512,259.954,503.046,251,492,251z M256,402c-33.636,0-61-30.505-61-68
				c0-15.675,4.895-30.892,13.785-43h94.431C312.112,303.117,317,318.296,317,334C317,371.495,289.636,402,256,402z"/>
			<path d="M60,210h232c33.084,0,60-26.916,60-60V60c0-33.084-26.916-60-60-60H60C26.916,0,0,26.916,0,60v90
				C0,183.084,26.916,210,60,210z M40,60c0-11.028,8.972-20,20-20h232c11.028,0,20,8.972,20,20v90c0,11.028-8.972,20-20,20H60
				c-11.028,0-20-8.972-20-20V60z"/>
			<circle cx="415" cy="343" r="20"/>
			<path d="M492,170h-80c-11.046,0-20,8.954-20,20s8.954,20,20,20h80c11.046,0,20-8.954,20-20S503.046,170,492,170z"/>
			<path d="M492,85h-80c-11.046,0-20,8.954-20,20s8.954,20,20,20h80c11.046,0,20-8.954,20-20S503.046,85,492,85z"/>
			<circle cx="97" cy="343" r="20"/>
		</g>
	</g>
</g>
<g>
</g>
<g>
</g>
<g>
</g>
<g>
</g>
<g>
</g>
<g>
</g>
<g>
</g>
<g>
</g>
<g>
</g>
<g>
</g>
<g>
</g>
<g>
</g>
<g>
</g>
<g>
</g>
<g>
</g>
</svg>
